<svg xmlns="http://www.w3.org/2000/svg" viewBox="0 0 800 600" role="img" aria-labelledby="title desc">
  <title id="title">Biryani demo image</title>
  <desc id="desc">Illustrated bowl of biryani rice with egg, herbs, and spices.</desc>
  <defs>
    <linearGradient id="bg" x1="0" x2="1" y1="0" y2="1">
      <stop offset="0%" stop-color="#2d1b10" />
      <stop offset="100%" stop-color="#120d08" />
    </linearGradient>
    <linearGradient id="bowl" x1="0" x2="0" y1="0" y2="1">
      <stop offset="0%" stop-color="#5f6670" />
      <stop offset="100%" stop-color="#343840" />
    </linearGradient>
  </defs>
  <rect width="800" height="600" fill="url(#bg)" />
  <ellipse cx="400" cy="450" rx="250" ry="45" fill="#000000" opacity="0.25" />
  <path d="M190 220c20 150 90 220 210 220s190-70 210-220H190z" fill="url(#bowl)" />
  <ellipse cx="400" cy="220" rx="220" ry="78" fill="#ece4d6" />
  <ellipse cx="400" cy="220" rx="205" ry="64" fill="#f1b247" />
  <g opacity="0.95">
    <circle cx="280" cy="205" r="20" fill="#d98c1a" />
    <circle cx="520" cy="215" r="18" fill="#d98c1a" />
    <circle cx="450" cy="185" r="16" fill="#c96e16" />
    <circle cx="360" cy="240" r="15" fill="#c96e16" />
    <circle cx="320" cy="250" r="14" fill="#d98c1a" />
  </g>
  <g fill="#f8d36d">
    <path d="M235 192l42 14-28 18 48 12-22 18 40 8" />
    <path d="M322 170l38 20-30 20 54 10-26 19 46 10" />
    <path d="M410 172l36 18-28 18 58 12-24 17 45 11" />
    <path d="M500 185l34 14-24 17 46 11-26 18 34 8" />
  </g>
  <g stroke="#2f7b3f" stroke-width="10" stroke-linecap="round">
    <path d="M300 160c15 20 18 40 6 58" />
    <path d="M360 150c14 18 18 34 8 52" />
    <path d="M450 152c16 18 18 35 8 54" />
    <path d="M520 165c14 16 17 31 8 47" />
  </g>
  <g>
    <ellipse cx="338" cy="208" rx="30" ry="38" fill="#f4efe7" />
    <ellipse cx="338" cy="208" rx="22" ry="30" fill="#fffaf2" />
    <ellipse cx="478" cy="232" rx="30" ry="38" fill="#f4efe7" />
    <ellipse cx="478" cy="232" rx="22" ry="30" fill="#fffaf2" />
  </g>
  <text x="400" y="525" fill="#f3cf88" font-family="Georgia, serif" font-size="48" font-weight="700" text-anchor="middle">
    Meet Point Biryani
  </text>
</svg>
